<svg width="1600" height="900" viewBox="0 0 1600 900" fill="none" xmlns="http://www.w3.org/2000/svg">
  <defs>
    <linearGradient id="bg" x1="0" y1="0" x2="1600" y2="900" gradientUnits="userSpaceOnUse">
      <stop stop-color="#A7F3D0"/>
      <stop offset="0.5" stop-color="#D9F99D"/>
      <stop offset="1" stop-color="#5EEAD4"/>
    </linearGradient>
  </defs>
  <rect width="1600" height="900" rx="120" fill="url(#bg)"/>
  <circle cx="1250" cy="160" r="110" fill="white" fill-opacity="0.16"/>
  <circle cx="260" cy="740" r="150" fill="white" fill-opacity="0.10"/>
  <rect x="470" y="220" width="660" height="430" rx="36" fill="#FFFFFF" fill-opacity="0.82"/>
  <rect x="510" y="260" width="290" height="350" rx="28" fill="#ECFDF5"/>
  <path d="M540 340H770" stroke="#14B8A6" stroke-width="18" stroke-linecap="round"/>
  <path d="M540 390H730" stroke="#14B8A6" stroke-width="18" stroke-linecap="round"/>
  <path d="M540 440H760" stroke="#14B8A6" stroke-width="18" stroke-linecap="round"/>
  <path d="M540 490H705" stroke="#14B8A6" stroke-width="18" stroke-linecap="round"/>
  <path d="M540 540H745" stroke="#14B8A6" stroke-width="18" stroke-linecap="round"/>
  <rect x="840" y="260" width="250" height="350" rx="28" fill="#EEF2FF"/>
  <path d="M900 330H1020" stroke="#6366F1" stroke-width="18" stroke-linecap="round"/>
  <path d="M900 380H990" stroke="#6366F1" stroke-width="18" stroke-linecap="round"/>
  <path d="M900 430H1030" stroke="#6366F1" stroke-width="18" stroke-linecap="round"/>
  <path d="M900 480H970" stroke="#6366F1" stroke-width="18" stroke-linecap="round"/>
  <path d="M900 530H1010" stroke="#6366F1" stroke-width="18" stroke-linecap="round"/>
  <path d="M800 210L920 160L1040 210L920 260L800 210Z" fill="#0F172A" fill-opacity="0.8"/>
  <path d="M865 220V280" stroke="#0F172A" stroke-width="20" stroke-linecap="round"/>
  <path d="M975 220V280" stroke="#0F172A" stroke-width="20" stroke-linecap="round"/>
</svg>
