<svg width="1600" height="900" viewBox="0 0 1600 900" fill="none" xmlns="http://www.w3.org/2000/svg">
  <defs>
    <linearGradient id="bg" x1="0" y1="0" x2="1600" y2="900" gradientUnits="userSpaceOnUse">
      <stop stop-color="#FDE68A"/>
      <stop offset="0.5" stop-color="#FBCFE8"/>
      <stop offset="1" stop-color="#FDBA74"/>
    </linearGradient>
    <linearGradient id="book1" x1="410" y1="180" x2="1210" y2="720" gradientUnits="userSpaceOnUse">
      <stop stop-color="#FFF7ED"/>
      <stop offset="1" stop-color="#FDBA74"/>
    </linearGradient>
    <linearGradient id="book2" x1="490" y1="260" x2="1260" y2="760" gradientUnits="userSpaceOnUse">
      <stop stop-color="#E0F2FE"/>
      <stop offset="1" stop-color="#60A5FA"/>
    </linearGradient>
  </defs>
  <rect width="1600" height="900" rx="120" fill="url(#bg)"/>
  <circle cx="1280" cy="180" r="120" fill="white" fill-opacity="0.18"/>
  <circle cx="240" cy="740" r="140" fill="white" fill-opacity="0.12"/>
  <path d="M470 260C470 232.386 492.386 210 520 210H980C1007.61 210 1030 232.386 1030 260V290H470V260Z" fill="#8B5E3C" fill-opacity="0.85"/>
  <path d="M470 290H1030V620C1030 647.614 1007.61 670 980 670H520C492.386 670 470 647.614 470 620V290Z" fill="url(#book1)"/>
  <path d="M520 255H565V620H520C492.386 620 470 597.614 470 570V305C470 277.386 492.386 255 520 255Z" fill="#78350F" fill-opacity="0.9"/>
  <path d="M565 265H608V620H565V265Z" fill="#B45309" fill-opacity="0.9"/>
  <path d="M630 315H940" stroke="#FFFFFF" stroke-opacity="0.7" stroke-width="18" stroke-linecap="round"/>
  <path d="M630 365H900" stroke="#FFFFFF" stroke-opacity="0.7" stroke-width="18" stroke-linecap="round"/>
  <path d="M630 415H940" stroke="#FFFFFF" stroke-opacity="0.7" stroke-width="18" stroke-linecap="round"/>
  <path d="M630 465H880" stroke="#FFFFFF" stroke-opacity="0.7" stroke-width="18" stroke-linecap="round"/>
  <path d="M630 515H920" stroke="#FFFFFF" stroke-opacity="0.7" stroke-width="18" stroke-linecap="round"/>
  <rect x="1030" y="285" width="90" height="330" rx="38" fill="url(#book2)" transform="rotate(12 1030 285)"/>
  <rect x="1110" y="325" width="90" height="290" rx="38" fill="#34D399" fill-opacity="0.72" transform="rotate(12 1110 325)"/>
  <rect x="1190" y="365" width="90" height="250" rx="38" fill="#F59E0B" fill-opacity="0.72" transform="rotate(12 1190 365)"/>
  <path d="M760 740C905 740 980 682 1060 620" stroke="#ffffff" stroke-opacity="0.6" stroke-width="28" stroke-linecap="round"/>
</svg>
