<svg width="1600" height="900" viewBox="0 0 1600 900" fill="none" xmlns="http://www.w3.org/2000/svg">
  <defs>
    <linearGradient id="bg" x1="0" y1="0" x2="1600" y2="900" gradientUnits="userSpaceOnUse">
      <stop stop-color="#FBCFE8"/>
      <stop offset="0.5" stop-color="#E9D5FF"/>
      <stop offset="1" stop-color="#F9A8D4"/>
    </linearGradient>
  </defs>
  <rect width="1600" height="900" rx="120" fill="url(#bg)"/>
  <circle cx="1240" cy="170" r="110" fill="white" fill-opacity="0.16"/>
  <circle cx="250" cy="720" r="140" fill="white" fill-opacity="0.10"/>
  <path d="M780 210C780 210 880 260 930 360C980 460 960 560 890 650C820 740 700 760 610 720C520 680 470 580 490 480C510 380 590 300 690 250C730 230 760 220 780 210Z" fill="#FFFFFF" fill-opacity="0.74"/>
  <path d="M760 250C740 300 710 350 670 410C630 470 590 540 560 620" stroke="#7C2D12" stroke-width="22" stroke-linecap="round"/>
  <path d="M760 250C780 300 810 350 850 410C890 470 930 540 960 620" stroke="#7C2D12" stroke-width="22" stroke-linecap="round"/>
  <path d="M635 460C700 430 770 430 835 460" stroke="#A21CAF" stroke-width="18" stroke-linecap="round"/>
  <path d="M610 540C690 500 790 500 870 540" stroke="#A21CAF" stroke-width="18" stroke-linecap="round"/>
  <path d="M655 625C720 595 785 595 850 625" stroke="#A21CAF" stroke-width="18" stroke-linecap="round"/>
  <path d="M1080 340C1120 300 1170 280 1230 280" stroke="#FFFFFF" stroke-opacity="0.8" stroke-width="18" stroke-linecap="round"/>
  <path d="M1050 390C1110 360 1165 350 1235 360" stroke="#FFFFFF" stroke-opacity="0.7" stroke-width="18" stroke-linecap="round"/>
  <path d="M1030 455C1110 430 1185 430 1260 455" stroke="#FFFFFF" stroke-opacity="0.7" stroke-width="18" stroke-linecap="round"/>
</svg>
