<svg width="512" height="512" viewBox="0 0 512 512" fill="none" xmlns="http://www.w3.org/2000/svg">
  <path
    d="M145 150C145 123.5 166.5 102 193 102H306.5C323.2 102 339.3 108.2 351.7 119.3L382.4 146.7C392.1 155.3 392 170.6 382.1 179.1L351.4 205.4C344.1 211.7 334.8 215.2 325.2 215.2H215.7C206.9 215.2 198.5 212.3 191.7 207.1L162.6 184.9C151.7 176.6 145 163.6 145 150Z"
    fill="#000000"
  />
  <path
    d="M138.5 173.8C138.5 156.3 152.5 142 170 142H191.7C198.5 142 206.9 144.9 213.7 150.1L242.8 172.3C249.6 177.5 258 180.4 266.8 180.4H316.3C332.4 180.4 345.5 193.5 345.5 209.6C345.5 221 339.1 231.4 329 236.5L300.2 251.2C289.4 256.7 277.1 258.8 265.2 257.1L183.7 245.4C166.7 243 153.8 228.3 153.8 211.1V202.2C153.8 193.2 147.8 185.3 139.3 182.7C136.8 181.9 138.5 177.5 138.5 173.8Z"
    fill="#000000"
  />
  <path
    d="M156 221.5C156 215.2 160.2 209.7 166.2 208L197 199.3C201.3 198.1 205.9 198.6 209.8 200.7L242.8 218.4C247 220.7 251.8 221.4 256.5 220.4L314.8 207.8C325 205.6 335.2 212.2 337.5 222.4C339.7 232.2 333.6 242.1 324 244.8L279.2 257.3C272.8 259.1 266.9 262.4 261.9 267L244.2 283.1C237.4 289.4 226.9 289.7 219.7 283.9L175.9 248.9C163.8 239.2 156 231 156 221.5Z"
    fill="#000000"
  />
  <path
    d="M154 269.6C154 262.4 158.8 256 165.8 253.9L198.1 244.2C202.1 243 206.5 243.3 210.3 245.1L236.5 257.5C241 259.6 246.1 260 251 258.7L323.7 239.5C334 236.8 344.7 243 347.5 253.3C350.1 262.9 344.7 272.8 335.4 276.2L283.5 295.2C276.8 297.6 270.7 301.4 265.8 306.4L247.4 325.3C240.4 332.6 228.6 333 221.1 326.1L172 280.2C162.4 271.2 154 276.7 154 269.6Z"
    fill="#000000"
  />
  <path
    d="M165 341.2C165 322.9 179.8 308.1 198.1 308.1H327.5C350.9 308.1 372.1 321.8 381.6 343.1L392.3 367C399.9 384.1 395.7 404.2 381.7 416.7L345.4 449.1C336 457.5 323.9 462.1 311.4 462.1H223.8C208.3 462.1 193.2 456.8 181.1 447.1L171.3 439.2C159.6 429.9 153 416.1 153 401.4V375.2C153 363 157.9 351.4 165 341.2Z"
    fill="#000000"
  />
  <path
    d="M122.5 379.7C122.5 369.6 130.8 361.4 140.9 361.4H171.2C180.2 361.4 188 367.7 189.9 376.5L200.8 427.1C202.6 435.7 196.9 444 188.3 445.8L160 451.7C150.5 453.7 141 448 138.2 438.8L123.7 391.1C122.9 388.5 122.5 385.8 122.5 383V379.7Z"
    fill="#000000"
  />
  <path
    d="M210.1 343.2V450.5"
    stroke="#000000"
    stroke-width="18"
    stroke-linecap="round"
  />
  <path
    d="M240.9 333.7V432.1"
    stroke="#000000"
    stroke-width="15"
    stroke-linecap="round"
  />
  <path
    d="M272.8 324.8V411.5"
    stroke="#000000"
    stroke-width="15"
    stroke-linecap="round"
  />
  <path
    d="M304.6 317.2V391.7"
    stroke="#000000"
    stroke-width="15"
    stroke-linecap="round"
  />
  <path
    d="M336.2 309.5V372.8"
    stroke="#000000"
    stroke-width="15"
    stroke-linecap="round"
  />
</svg>
